<?xml version="1.0" encoding="UTF-8"?>
<svg width="160px" height="160px" viewBox="0 0 160 160" version="1.1" xmlns="http://www.w3.org/2000/svg" xmlns:xlink="http://www.w3.org/1999/xlink">
    <!-- Generator: Sketch 52.6 (67491) - http://www.bohemiancoding.com/sketch -->
    <title>taikido</title>
    <desc>Created with Sketch.</desc>
    <g id="Page-1" stroke="none" stroke-width="1" fill="none" fill-rule="evenodd">
        <g id="Icon">
            <g id="taikido" transform="translate(-1.000000, -1.000000)">
                <g id="Group">
                    <circle id="Oval" fill="#000000" cx="81.04" cy="81.04" r="80.09"></circle>
                    <circle id="Oval" fill="#FFFFFF" cx="81.04" cy="81.04" r="74.72"></circle>
                </g>
                <g id="Group" transform="translate(7.000000, 8.000000)">
                    <circle id="Oval" fill="#E41513" transform="translate(73.727867, 73.036501) rotate(-45.000000) translate(-73.727867, -73.036501) " cx="73.727867" cy="73.036501" r="51.5495056"></circle>
                    <path d="M73.73,21.99 C101.88,21.99 124.78,44.89 124.78,73.04 C124.78,101.19 101.88,124.09 73.73,124.09 C45.58,124.09 22.68,101.19 22.68,73.04 C22.68,44.89 45.58,21.99 73.73,21.99 Z M73.73,20.99 C44.99,20.99 21.68,44.29 21.68,73.04 C21.68,101.79 44.98,125.09 73.73,125.09 C102.48,125.09 125.78,101.79 125.78,73.04 C125.78,44.29 102.47,20.99 73.73,20.99 Z" id="Shape" fill="#B6251F" fill-rule="nonzero"></path>
                </g>
                <g id="Page-1" transform="translate(34.000000, 44.000000)" fill="#020203">
                    <g id="Group-2">
                        <path d="M20.98,16.76 C22.78,15.85 24.78,15.85 27.2,17.04 C29.63,18.23 29.58,20.26 29.58,21.2 C29.58,22.14 27.58,26.56 25.25,26.72 C22.93,26.88 22.78,25.53 22.78,25.22 C22.78,24.92 25.38,24.56 25.83,24.37 C26.29,24.18 29.48,21.14 26.45,19.15 C23.42,17.15 21.98,18.7 20.98,19.37 C19.97,20.04 19.11,21.63 18.08,21.21 C17.04,20.79 17.46,19.93 18.08,19.16 C18.69,18.36 19.83,17.35 20.98,16.76 Z" id="Path"></path>
                        <path d="M24.29,15.4 C24.61,13.97 28.62,8.61 32.32,11.8 C36.82,15.69 31.68,24.34 30.52,23.66 C29.36,22.98 32.88,19.43 30.52,14.69 C28.63,10.91 23.97,16.83 24.29,15.4 Z" id="Path-2"></path>
                        <path d="M29.43,10.46 C28.28,9.77 35.21,5.42 37.35,12.58 C39.49,19.74 35.25,26.59 30.15,24.96 C26.34,23.74 31.68,24.73 33.78,22.52 C35.88,20.31 37.34,16.59 35.3,12.85 C33.27,9.11 30.58,11.15 29.43,10.46 Z" id="Path-3"></path>
                        <path d="M34.75,8 C36.88,7.4 38.63,8.06 39.08,8.71 C40.2,10.35 40.91,11.9 39.08,14.03 C37.25,16.16 39.85,11.58 38.2,9.76 C36.55,7.94 32.62,8.59 34.75,8 Z" id="Path-4"></path>
                        <path d="M40.95,21.07 C40.95,27.67 23.96,31.74 23.96,41.72 C23.96,44.68 24.02,42.53 24.71,44.79 C24.9,45.41 23.96,47.77 23.59,47.06 C23.22,46.35 21.24,42.44 21.24,40.2 C21.24,31.63 39.34,24.86 39.34,21.07 C39.34,19.16 38.62,19.58 38.62,17.64 C38.62,16.34 38.62,15.87 38.62,16.22 C40.18,17.54 40.95,19.16 40.95,21.07 Z" id="Path-5"></path>
                        <path d="M43.99,26.73 C43.99,30.55 26.02,42.16 25.4,56.66 C25.27,59.66 23.17,66.16 20.86,66.16 C19.5,66.16 15.86,64.26 12.05,62.18 C6.89,59.36 1.24,55.76 2.44,53.57 C3.77,51.15 7.95,56.43 13.02,59.93 C15.81,61.86 18.72,63.21 20.86,63.65 C22.63,64.01 22.45,59.2 22.82,57.01 C25.91,38.73 34.6,32.82 37.33,30.23 C41.45,26.33 41.45,21.63 42.07,22.23 C42.69,22.83 43.99,23.81 43.99,26.73 Z" id="Path"></path>
                        <path d="M15.05,35.13 C5.18,29.54 3.2,23.03 1.36,22.21 C-0.48,21.39 1.95,36.3 7.88,41.12 C13.82,45.93 15.69,46.9 17.43,47.85 C19.18,48.79 21.18,43.73 21.18,43.5 C21.18,43.27 19.82,43 19.37,43 C18.91,43 18.73,43.98 18.33,43.98 C17.92,43.98 10,39.46 7.2,36.18 C4.4,32.9 4.07,30.58 4.07,30.2 C4.07,29.82 12.15,36.73 13.14,37.44 C14.13,38.14 18.5,40.14 19.38,39.91 C20.26,39.68 20.76,37.25 21.19,36.75 C21.49,36.41 20.37,35.91 18.34,35.91 C17.38,35.89 15.94,35.63 15.05,35.13 Z" id="Path-6"></path>
                        <path d="M78.01,34.21 C77.81,34.19 77.79,34.84 77.62,35.47 C77.45,36.1 77.12,36.72 77.2,36.76 C79.75,38.19 83.19,41.55 83.43,42.85 C83.67,44.15 83.44,45.3 83.84,45.14 C84.25,44.98 84.6,44.16 85.4,44.03 C86.2,43.9 85.83,42.82 85.59,42.69 C85.35,42.56 84.2,40.97 84.13,40.58 C84.06,40.19 78.33,34.25 78.01,34.21 Z" id="Path"></path>
                        <path d="M47.33,30.16 C45.9,30.16 44.75,30.9 44.05,32.5 C43.35,34.11 41.56,39.56 40.27,40.85 C38.98,42.14 37.22,43.65 36.3,45.54 C35.38,47.43 31.24,53.7 31.24,56.16 C31.24,58.62 29.52,66.08 27.55,66.08 C25.57,66.08 23.55,65.72 22.44,66.08 C21.33,66.44 22.3,68.38 25.34,68.38 C28.37,68.38 30.55,66.24 31.24,64.96 C31.94,63.68 33.1,56.11 36.68,53.4 C40.26,50.69 40.33,47.08 42.13,43.97 C43.93,40.86 44.19,42.79 45.02,40.07 C45.85,37.35 44.6,34.84 46.56,32.88 C48.53,30.92 48.27,31.83 48.27,32.88 C48.27,33.93 49.34,36.81 49.34,38.4 C49.34,39.99 49.21,43.6 48.27,45.16 C47.33,46.72 46.44,47.45 45.02,47.93 C43.6,48.41 43.78,50.14 45.56,50.14 C47.34,50.14 51.06,48.42 51.53,47.93 C52,47.44 52.13,43.05 51.53,40.86 C50.93,38.67 51.91,39.61 52.32,38.81 C52.73,38.01 52.11,36.6 52.79,35.45 C53.47,34.3 57.31,32.67 58.52,33.49 C59.73,34.31 59.59,34.68 58.52,35.45 C57.45,36.22 55.25,36.76 54.79,38.81 C54.33,40.86 54.06,42.98 54.79,44.5 C55.52,46.02 55.87,48.95 56.48,49.72 C57.09,50.49 57.24,50.58 57.88,51.47 C58.52,52.36 57.88,58.8 56.88,59.75 C55.88,60.7 55.17,61.77 55.17,63.37 C55.17,64.97 53.58,68.23 52.32,68.94 C51.05,69.65 49.22,70.41 48.28,70.41 C47.34,70.41 45.89,69.5 44.42,70.41 C42.95,71.32 42.33,71.51 42.97,71.95 C43.6,72.39 46.49,73.33 47.84,72.86 C49.19,72.39 49.82,73.33 51.53,72.86 C53.24,72.39 55.08,71.95 56.48,71.95 C57.88,71.95 56.48,70.82 56.48,69.61 C56.48,68.4 57.61,67.22 58.53,66.1 C59.44,64.98 60.26,60.33 60.26,59.08 C60.26,57.84 60.07,54.83 60.82,53.42 C61.57,52 60.21,47.98 59.37,47.45 C58.53,46.93 57.27,43.82 57.27,42.03 C57.27,40.24 60.59,37.57 61.42,36.51 C62.25,35.45 62.69,34.44 62.47,33.96 C62.25,33.49 63.69,33.05 64.29,33.96 C64.88,34.87 64.67,38.01 63.8,38.01 C62.93,38.01 62.47,37.32 62.47,38.41 C62.47,39.5 61.42,40.47 61.42,42.02 C61.42,43.57 63.8,46.23 63.8,47.44 C63.8,48.65 64.78,51.71 64.29,52.56 C63.8,53.41 60.37,54.78 61.42,55.48 C62.47,56.18 62.39,57.94 63.34,56.86 C64.29,55.78 66.96,55.23 66.66,53.4 C66.35,51.58 66.33,51.09 65.94,50.13 C65.55,49.17 64.11,47.12 65.03,45.54 C65.94,43.96 63.84,43.17 64.29,42.01 C64.75,40.85 67.87,39.5 67.87,38 C67.87,36.5 67.11,36.09 67.87,34.78 C68.63,33.48 70.45,32.46 70.8,33.95 C71.15,35.44 71.5,37.38 70.8,38.4 C70.1,39.42 69.56,40.42 69.83,42.01 C70.1,43.6 70.49,43.65 68.77,45.54 C67.05,47.43 65.22,48.89 65.94,49.29 C66.66,49.7 67.74,48.41 69.83,47.92 C71.92,47.43 70.58,47.84 71.67,45.54 C72.76,43.24 71.82,42.9 72.98,40.85 C74.14,38.8 77.98,35.34 76.06,31.27 C74.14,27.2 74.29,25.69 73.63,24.21 C72.97,22.73 71.55,20.13 74.82,21.43 C78.09,22.73 79.11,27.43 78.6,29.71 C78.09,31.99 80.47,35.9 82.45,37.15 C84.43,38.39 89.14,43.04 88.57,43.5 C88,43.96 85.12,45.44 83.79,46.23 C82.46,47.02 79.49,49.16 78.6,51.45 C77.71,53.74 76.59,57.22 78.08,58.66 C79.57,60.1 79.99,58.21 79.99,57.53 C79.99,56.85 79,52.24 84.73,48.89 C90.46,45.54 93.29,43.81 93.65,42.91 C94.01,42 93.62,38.83 94.54,37.99 C95.46,37.15 93.7,35.83 92.84,36.49 C91.99,37.15 91.65,37.61 91.65,38.79 C91.65,39.97 91.31,42.11 90.11,40.45 C88.91,38.79 81.71,33.84 81.71,31.62 C81.71,29.4 82.27,22.09 76.04,20.22 C69.81,18.35 63.77,16.14 63.77,11.79 C63.77,7.44 64.8,3.05 69.8,3.05 C74.8,3.05 76.03,4.03 76.03,7.43 C76.03,10.83 74.26,12.74 72.95,11.79 C71.64,10.84 70.8,5.52 68.35,7.43 C65.91,9.34 66.9,9.88 68.35,11.79 C69.8,13.7 70.18,14.97 73.6,14.97 C77.02,14.97 81.13,10.53 78.58,5.9 C76.03,1.27 72.39,-0.66 69.15,0.53 C65.91,1.72 60.24,4.03 60.24,11.8 C60.24,19.57 66.29,19.04 67.32,21.45 C68.35,23.86 70.8,28.67 68.35,29.73 C65.91,30.79 62.99,32.4 55.15,31.29 C47.33,30.16 48.76,30.16 47.33,30.16 Z" id="Path-7"></path>
                    </g>
                </g>
                <g id="Group" transform="translate(20.000000, 11.000000)" fill="#000000">
                    <g transform="translate(2.000000, 0.000000)">
                        <polygon id="Path" points="9.09 24.15 6.67 27.24 15.08 33.81 13.14 36.29 4.73 29.72 2.36 32.75 0.44 31.25 7.17 22.64"></polygon>
                        <path d="M22.22,23.4 L18.93,26.19 L19.94,28.55 L17.37,30.73 L12.54,17.63 L14.8,15.71 L26.97,22.58 L24.39,24.77 L22.22,23.4 Z M17.93,23.84 L20.07,22.02 L16.05,19.47 L17.93,23.84 Z" id="Shape" fill-rule="nonzero"></path>
                        <polygon id="Path" points="31.47 20.21 28.76 21.8 22.11 10.5 24.82 8.91"></polygon>
                        <polygon id="Path" points="43.47 10.61 38.31 12.18 37.63 9.94 42.79 8.37"></polygon>
                        <polygon id="Path" points="57.74 8.36 56.47 9.8 56.53 13.26 53.38 13.31 53.16 0.2 56.31 0.15 56.4 5.93 57.47 4.25 60.22 0.09 64.12 0.03 59.8 5.9 64.33 13.14 60.6 13.2"></polygon>
                        <polygon id="Path" points="69.21 14.18 66.11 13.69 68.17 0.74 71.27 1.23"></polygon>
                        <polygon id="Path" points="84.56 14.41 79.58 12.34 80.48 10.18 85.46 12.25"></polygon>
                        <path d="M90.5,22.75 L98.77,12.58 L102.04,15.24 C102.94,15.97 103.58,16.83 103.96,17.82 C104.34,18.81 104.43,19.84 104.23,20.91 C104.03,21.98 103.55,22.98 102.81,23.9 L102.43,24.37 C101.67,25.3 100.8,25.98 99.81,26.4 C98.82,26.82 97.8,26.95 96.74,26.78 C95.69,26.62 94.72,26.18 93.84,25.47 L90.5,22.75 Z M99.68,16.46 L94.48,22.85 L95.33,23.54 C96.03,24.11 96.77,24.3 97.56,24.1 C98.35,23.9 99.14,23.31 99.94,22.33 L100.3,21.89 C101.1,20.91 101.51,20.01 101.54,19.21 C101.57,18.41 101.22,17.71 100.5,17.13 L99.68,16.46 Z" id="Shape" fill-rule="nonzero"></path>
                        <path d="M111.79,35.67 C110.78,36.46 109.74,36.97 108.68,37.2 C107.61,37.43 106.6,37.37 105.65,37.01 C104.69,36.65 103.88,36.03 103.19,35.16 C102.5,34.28 102.1,33.35 101.97,32.35 C101.84,31.35 102.01,30.37 102.47,29.41 C102.93,28.44 103.63,27.57 104.59,26.79 L105.17,26.34 C106.18,25.55 107.22,25.04 108.28,24.8 C109.34,24.57 110.35,24.63 111.32,24.99 C112.28,25.35 113.11,25.97 113.79,26.86 C114.47,27.73 114.87,28.67 114.99,29.68 C115.11,30.69 114.93,31.68 114.46,32.66 C113.99,33.64 113.26,34.52 112.27,35.3 L111.79,35.67 Z M110.25,32.8 C111.28,32 111.92,31.22 112.19,30.46 C112.46,29.7 112.34,29.01 111.84,28.37 C110.87,27.12 109.42,27.2 107.49,28.59 L106.72,29.18 C105.71,29.97 105.06,30.75 104.78,31.51 C104.5,32.27 104.61,32.98 105.13,33.64 C105.62,34.27 106.26,34.54 107.06,34.46 C107.86,34.38 108.76,33.95 109.77,33.18 L110.25,32.8 Z" id="Shape" fill-rule="nonzero"></path>
                    </g>
                    <g transform="translate(0.000000, 97.000000)">
                        <polygon id="Path" points="12.65 3.65 7.39 10.37 15.57 7.95 17.65 11.02 7.99 17.59 6.4 15.25 8.66 13.72 13.43 10.81 4.97 13.15 3.92 11.61 9.21 4.59 4.74 7.96 2.48 9.49 0.9 7.16 10.56 0.59"></polygon>
                        <path d="M17.59,23.97 L14.75,21.35 L12.77,22.5 L10.56,20.46 L21.63,14.78 L23.58,16.57 L18.83,28.08 L16.61,26.03 L17.59,23.97 Z M16.72,20.21 L18.57,21.91 L20.39,18.08 L16.72,20.21 Z" id="Shape" fill-rule="nonzero"></path>
                        <polygon id="Path" points="30.03 35.15 27.63 33.71 27.83 25.35 24.08 31.58 21.67 30.13 27.69 20.12 30.1 21.57 29.89 29.93 33.64 23.7 36.05 25.15"></polygon>
                        <polygon id="Path" points="43.27 40.22 40.62 39.3 39.09 31.08 36.71 37.95 34.05 37.03 37.87 25.99 40.53 26.91 42.06 35.13 44.44 28.26 47.09 29.18"></polygon>
                        <polygon id="Path" points="57.3 42.45 54.52 42.1 55.13 37.26 51.01 36.74 50.4 41.58 47.61 41.23 49.06 29.64 51.85 29.99 51.27 34.59 55.39 35.11 55.97 30.51 58.75 30.86"></polygon>
                        <polygon id="Path" points="68.49 37.08 64.07 37.35 64.24 40.14 69.46 39.82 69.59 41.98 61.56 42.47 60.85 30.81 68.9 30.32 69.03 32.49 63.79 32.81 63.94 35.27 68.36 35"></polygon>
                        <polygon id="Path" points="75.75 40.8 73 41.34 70.73 29.88 73.48 29.34"></polygon>
                        <polygon id="Path" points="79.28 27.76 84.68 34.38 84.13 25.86 87.58 24.51 91.84 35.39 89.21 36.42 88.21 33.88 86.43 28.58 86.84 37.35 85.11 38.03 79.44 31.32 81.74 36.43 82.74 38.97 80.12 40 75.86 29.12"></polygon>
                        <path d="M103.88,27.49 C102.84,28.32 101.74,28.67 100.6,28.56 C99.46,28.45 98.5,27.89 97.71,26.89 L97.57,26.71 C97.02,26.01 96.66,25.3 96.5,24.56 C96.34,23.82 96.39,23.11 96.65,22.43 C96.91,21.75 97.39,21.14 98.07,20.6 C99.03,19.84 100.02,19.54 101.04,19.7 C102.06,19.86 103,20.46 103.83,21.53 L104.48,22.35 L100.26,25.68 C100.64,26 101.04,26.17 101.47,26.19 C101.9,26.21 102.32,26.05 102.72,25.73 C103.39,25.2 103.73,24.55 103.74,23.78 L105.61,24.16 C105.63,24.73 105.49,25.32 105.18,25.92 C104.88,26.53 104.44,27.05 103.88,27.49 Z M99.35,22.26 C98.73,22.75 98.68,23.45 99.22,24.37 L101.36,22.68 L101.23,22.52 C100.97,22.17 100.68,21.98 100.35,21.93 C100.02,21.88 99.69,21.99 99.35,22.26 Z" id="Shape" fill-rule="nonzero"></path>
                        <path d="M108.19,19.81 C108.49,19.5 108.83,19.34 109.21,19.31 C109.59,19.28 109.92,19.41 110.21,19.68 C110.5,19.95 110.63,20.28 110.61,20.66 C110.59,21.04 110.44,21.38 110.14,21.69 C109.84,22 109.5,22.17 109.12,22.19 C108.74,22.21 108.41,22.09 108.13,21.82 C107.85,21.55 107.72,21.22 107.73,20.84 C107.74,20.47 107.89,20.13 108.19,19.81 Z" id="Path"></path>
                        <polygon id="Path" points="114 12.02 108.45 5.17 110.28 2.62 117.47 12.63 115.67 15.13 103.91 11.48 105.73 8.94"></polygon>
                        <path d="M118.64,5.72 C118.85,5.35 119.13,5.1 119.49,4.97 C119.85,4.85 120.2,4.88 120.55,5.07 C120.9,5.26 121.11,5.54 121.2,5.91 C121.29,6.28 121.23,6.65 121.02,7.03 C120.81,7.41 120.53,7.66 120.17,7.78 C119.81,7.9 119.46,7.87 119.12,7.68 C118.78,7.49 118.56,7.21 118.47,6.84 C118.37,6.48 118.43,6.1 118.64,5.72 Z" id="Path"></path>
                    </g>
                </g>
            </g>
        </g>
    </g>
</svg>